<svg width="9" height="23" viewBox="0 0 9 23" fill="none" xmlns="http://www.w3.org/2000/svg">
<path d="M7.77273 5.22727V17.25C7.77273 18.3591 7.42792 19.4227 6.81417 20.207C6.20041 20.9912 5.36798 21.4318 4.5 21.4318C3.63202 21.4318 2.79959 20.9912 2.18583 20.207C1.57208 19.4227 1.22727 18.3591 1.22727 17.25V4.18182C1.22727 3.48864 1.44278 2.82385 1.82637 2.3337C2.20997 1.84355 2.73024 1.56818 3.27273 1.56818C3.81522 1.56818 4.33548 1.84355 4.71908 2.3337C5.10268 2.82385 5.31818 3.48864 5.31818 4.18182V15.1591C5.31818 15.4364 5.23198 15.7023 5.07854 15.8983C4.9251 16.0944 4.717 16.2045 4.5 16.2045C4.283 16.2045 4.0749 16.0944 3.92146 15.8983C3.76802 15.7023 3.68182 15.4364 3.68182 15.1591V5.22727H2.45455V15.1591C2.45455 15.8523 2.67005 16.5171 3.05365 17.0072C3.43724 17.4974 3.95751 17.7727 4.5 17.7727C5.04249 17.7727 5.56276 17.4974 5.94635 17.0072C6.32995 16.5171 6.54545 15.8523 6.54545 15.1591V4.18182C6.54545 3.07273 6.20065 2.00907 5.58689 1.22483C4.97314 0.440583 4.14071 0 3.27273 0C2.40475 0 1.57231 0.440583 0.958559 1.22483C0.344804 2.00907 0 3.07273 0 4.18182V17.25C0 18.775 0.474105 20.2375 1.31802 21.3159C2.16193 22.3942 3.30653 23 4.5 23C5.69347 23 6.83807 22.3942 7.68198 21.3159C8.52589 20.2375 9 18.775 9 17.25V5.22727H7.77273Z" fill="white"/>
</svg>
